<svg xmlns="http://www.w3.org/2000/svg" viewBox="0 0 600 340" role="img" aria-label="Lead Capture and Scoring Tool"><defs><linearGradient id="g1" x1="0" y1="0" x2="1" y2="1"><stop offset="0" stop-color="#6c5ce7"/><stop offset="1" stop-color="#00d4ff"/></linearGradient></defs><rect width="600" height="340" rx="18" fill="#0b1020"/><rect x="24" y="24" width="552" height="54" rx="12" fill="#151c34"/><circle cx="54" cy="51" r="12" fill="url(#g1)"/><rect x="78" y="44" width="160" height="14" rx="7" fill="#9aa6c4" opacity=".6"/><rect x="452" y="40" width="100" height="22" rx="11" fill="url(#g1)"/><g><rect x="24" y="96" width="168" height="220" rx="12" fill="#151c34"/><rect x="44" y="120" width="120" height="12" rx="6" fill="#9aa6c4" opacity=".5"/><rect x="44" y="148" width="128" height="28" rx="8" fill="#1c2542"/><rect x="44" y="186" width="128" height="28" rx="8" fill="#1c2542"/><rect x="44" y="224" width="128" height="28" rx="8" fill="#1c2542"/><rect x="44" y="272" width="128" height="28" rx="8" fill="url(#g1)"/></g><g><rect x="208" y="96" width="368" height="64" rx="12" fill="#151c34"/><rect x="208" y="96" width="6" height="64" rx="3" fill="#ff5c7c"/><circle cx="242" cy="128" r="16" fill="url(#g1)"/><rect x="270" y="114" width="140" height="12" rx="6" fill="#e8ecf6" opacity=".8"/><rect x="270" y="134" width="100" height="10" rx="5" fill="#9aa6c4" opacity=".5"/><text x="540" y="134" font-family="Poppins,sans-serif" font-size="26" font-weight="700" fill="#ff5c7c" text-anchor="end">82</text><rect x="208" y="172" width="368" height="64" rx="12" fill="#151c34"/><rect x="208" y="172" width="6" height="64" rx="3" fill="#ffb13d"/><circle cx="242" cy="204" r="16" fill="url(#g1)"/><rect x="270" y="190" width="120" height="12" rx="6" fill="#e8ecf6" opacity=".8"/><rect x="270" y="210" width="90" height="10" rx="5" fill="#9aa6c4" opacity=".5"/><text x="540" y="210" font-family="Poppins,sans-serif" font-size="26" font-weight="700" fill="#ffb13d" text-anchor="end">54</text><rect x="208" y="248" width="368" height="64" rx="12" fill="#151c34"/><rect x="208" y="248" width="6" height="64" rx="3" fill="#4dabff"/><circle cx="242" cy="280" r="16" fill="url(#g1)"/><rect x="270" y="266" width="110" height="12" rx="6" fill="#e8ecf6" opacity=".8"/><rect x="270" y="286" width="80" height="10" rx="5" fill="#9aa6c4" opacity=".5"/><text x="540" y="286" font-family="Poppins,sans-serif" font-size="26" font-weight="700" fill="#4dabff" text-anchor="end">28</text></g></svg>
