<svg xmlns="http://www.w3.org/2000/svg" viewBox="0 0 600 340" role="img" aria-label="Email List Validator"><defs><linearGradient id="g2" x1="0" y1="0" x2="1" y2="1"><stop offset="0" stop-color="#6c5ce7"/><stop offset="1" stop-color="#00d4ff"/></linearGradient></defs><rect width="600" height="340" rx="18" fill="#0b1020"/><rect x="24" y="24" width="552" height="54" rx="12" fill="#151c34"/><rect x="48" y="44" width="180" height="14" rx="7" fill="#9aa6c4" opacity=".6"/><g><rect x="24" y="96" width="100" height="70" rx="12" fill="#151c34"/><text x="74" y="132" font-family="Poppins" font-size="24" font-weight="700" fill="#e8ecf6" text-anchor="middle">120</text><text x="74" y="152" font-family="Inter" font-size="11" fill="#9aa6c4" text-anchor="middle">Total</text><rect x="136" y="96" width="100" height="70" rx="12" fill="#151c34"/><text x="186" y="132" font-family="Poppins" font-size="24" font-weight="700" fill="#2ecc71" text-anchor="middle">98</text><text x="186" y="152" font-family="Inter" font-size="11" fill="#9aa6c4" text-anchor="middle">Valid</text><rect x="248" y="96" width="100" height="70" rx="12" fill="#151c34"/><text x="298" y="132" font-family="Poppins" font-size="24" font-weight="700" fill="#ff5c7c" text-anchor="middle">14</text><text x="298" y="152" font-family="Inter" font-size="11" fill="#9aa6c4" text-anchor="middle">Invalid</text><rect x="360" y="96" width="100" height="70" rx="12" fill="#151c34"/><text x="410" y="132" font-family="Poppins" font-size="24" font-weight="700" fill="#ffb13d" text-anchor="middle">8</text><text x="410" y="152" font-family="Inter" font-size="11" fill="#9aa6c4" text-anchor="middle">Risky</text></g><g><rect x="24" y="182" width="552" height="40" rx="10" fill="#151c34"/><rect x="24" y="182" width="6" height="40" rx="3" fill="#2ecc71"/><circle cx="52" cy="202" r="8" fill="#2ecc71"/><rect x="72" y="196" width="220" height="12" rx="6" fill="#e8ecf6" opacity=".75"/><rect x="24" y="232" width="552" height="40" rx="10" fill="#151c34"/><rect x="24" y="232" width="6" height="40" rx="3" fill="#ffb13d"/><circle cx="52" cy="252" r="8" fill="#ffb13d"/><rect x="72" y="246" width="180" height="12" rx="6" fill="#e8ecf6" opacity=".75"/><rect x="24" y="282" width="552" height="40" rx="10" fill="#151c34"/><rect x="24" y="282" width="6" height="40" rx="3" fill="#ff5c7c"/><circle cx="52" cy="302" r="8" fill="#ff5c7c"/><rect x="72" y="296" width="160" height="12" rx="6" fill="#e8ecf6" opacity=".75"/></g></svg>
